<svg width="20" height="20" viewBox="0 0 20 20" fill="none" xmlns="http://www.w3.org/2000/svg">
  <path fill-rule="evenodd" clip-rule="evenodd"
    d="M4.16667 15.8333H16.6667C16.8877 15.8333 17.0996 15.9211 17.2559 16.0774C17.4122 16.2337 17.5 16.4457 17.5 16.6667C17.5 16.8877 17.4122 17.0996 17.2559 17.2559C17.0996 17.4122 16.8877 17.5 16.6667 17.5H3.33333C3.11232 17.5 2.90036 17.4122 2.74408 17.2559C2.5878 17.0996 2.5 16.8877 2.5 16.6667V10C2.5 9.77899 2.5878 9.56702 2.74408 9.41074C2.90036 9.25446 3.11232 9.16667 3.33333 9.16667C3.55435 9.16667 3.76631 9.25446 3.92259 9.41074C4.07887 9.56702 4.16667 9.77899 4.16667 10V15.8333ZM8.33333 12.5C8.33333 12.721 8.24554 12.933 8.08926 13.0893C7.93297 13.2455 7.72101 13.3333 7.5 13.3333C7.27899 13.3333 7.06702 13.2455 6.91074 13.0893C6.75446 12.933 6.66667 12.721 6.66667 12.5V5C6.66667 4.77899 6.75446 4.56702 6.91074 4.41074C7.06702 4.25446 7.27899 4.16667 7.5 4.16667C7.72101 4.16667 7.93297 4.25446 8.08926 4.41074C8.24554 4.56702 8.33333 4.77899 8.33333 5V12.5ZM10 12.5V6.66667C10 6.44565 10.0878 6.23369 10.2441 6.07741C10.4004 5.92113 10.6123 5.83333 10.8333 5.83333C11.0543 5.83333 11.2663 5.92113 11.4226 6.07741C11.5789 6.23369 11.6667 6.44565 11.6667 6.66667V12.5C11.6667 12.721 11.5789 12.933 11.4226 13.0893C11.2663 13.2455 11.0543 13.3333 10.8333 13.3333C10.6123 13.3333 10.4004 13.2455 10.2441 13.0893C10.0878 12.933 10 12.721 10 12.5ZM13.3333 3.33333C13.3333 3.11232 13.4211 2.90036 13.5774 2.74408C13.7337 2.5878 13.9457 2.5 14.1667 2.5C14.3877 2.5 14.5996 2.5878 14.7559 2.74408C14.9122 2.90036 15 3.11232 15 3.33333V12.5C15 12.721 14.9122 12.933 14.7559 13.0893C14.5996 13.2455 14.3877 13.3333 14.1667 13.3333C13.9457 13.3333 13.7337 13.2455 13.5774 13.0893C13.4211 12.933 13.3333 12.721 13.3333 12.5V3.33333Z"
    fill="currentColor" />
</svg>