<svg width="20" height="20" viewBox="0 0 20 20" fill="none" xmlns="http://www.w3.org/2000/svg">
<path d="M11.875 15H16.25V16.25H11.875V15Z" fill="#333333"/>
<path d="M11.875 12.5H16.25V13.75H11.875V12.5Z" fill="#333333"/>
<path d="M11.875 10H16.25V11.25H11.875V10Z" fill="#333333"/>
<path d="M3.75 15H8.125V16.25H3.75V15Z" fill="#333333"/>
<path d="M3.75 12.5H8.125V13.75H3.75V12.5Z" fill="#333333"/>
<path d="M17.5 2.5H10.625C10.2936 2.50033 9.97583 2.63213 9.74148 2.86648C9.50713 3.10083 9.37533 3.41858 9.375 3.75V7.5H2.5C2.16858 7.50033 1.85083 7.63213 1.61648 7.86648C1.38213 8.10083 1.25033 8.41858 1.25 8.75V17.5C1.25033 17.8314 1.38213 18.1492 1.61648 18.3835C1.85083 18.6179 2.16858 18.7497 2.5 18.75H17.5C17.8314 18.7497 18.1492 18.6179 18.3835 18.3835C18.6179 18.1492 18.7497 17.8314 18.75 17.5V3.75C18.7497 3.41858 18.6179 3.10083 18.3835 2.86648C18.1492 2.63213 17.8314 2.50033 17.5 2.5ZM9.375 17.5H2.5V8.75H9.375V17.5ZM10.625 17.5V3.75H17.5V17.5H10.625Z" fill="#333333"/>
</svg>
