<svg width="22" height="22" viewBox="0 0 22 22" fill="currentColor" xmlns="http://www.w3.org/2000/svg">
  <path
    d="M3.66667 20.166C3.66667 18.2211 4.43929 16.3558 5.81456 14.9806C7.18982 13.6053 9.05508 12.8327 11 12.8327C12.9449 12.8327 14.8102 13.6053 16.1855 14.9806C17.5607 16.3558 18.3333 18.2211 18.3333 20.166H16.5C16.5 18.7073 15.9205 17.3084 14.8891 16.2769C13.8576 15.2455 12.4587 14.666 11 14.666C9.54131 14.666 8.14237 15.2455 7.11092 16.2769C6.07947 17.3084 5.5 18.7073 5.5 20.166H3.66667ZM11 11.916C7.96125 11.916 5.5 9.45477 5.5 6.41602C5.5 3.37727 7.96125 0.916016 11 0.916016C14.0388 0.916016 16.5 3.37727 16.5 6.41602C16.5 9.45477 14.0388 11.916 11 11.916ZM11 10.0827C13.0258 10.0827 14.6667 8.44185 14.6667 6.41602C14.6667 4.39018 13.0258 2.74935 11 2.74935C8.97417 2.74935 7.33334 4.39018 7.33334 6.41602C7.33334 8.44185 8.97417 10.0827 11 10.0827Z"
    fill="currentColor" />
</svg>