<svg width="54" height="24" viewBox="0 0 54 24" fill="none" xmlns="http://www.w3.org/2000/svg">
<path d="M39.3193 8.15563C39.3193 7.72767 39.4652 7.36779 39.757 7.076C40.0488 6.7842 40.4087 6.63831 40.8367 6.63831C41.2646 6.63831 41.6245 6.7842 41.9163 7.076C42.2275 7.36779 42.3832 7.72767 42.3832 8.15563C42.3832 8.58359 42.2275 8.9532 41.9163 9.26445C41.6245 9.55624 41.2646 9.70214 40.8367 9.70214C40.3892 9.70214 40.0391 9.54651 39.7862 9.23527C39.475 8.94347 39.3193 8.58359 39.3193 8.15563Z" fill="#FF8B49"/>
<path fill-rule="evenodd" clip-rule="evenodd" d="M23.2699 18.64L23.2725 18.6426L23.2752 18.6452C24.1528 19.4909 25.2412 19.9149 26.506 19.9149H28.5267C29.1289 19.9149 29.6171 19.4267 29.6171 18.8245V17.7991C29.6171 17.1969 29.1289 16.7087 28.5267 16.7087H26.8707C26.4416 16.7087 26.1484 16.591 25.9362 16.3928C25.74 16.1698 25.6162 15.8475 25.6162 15.3719V9.849H28.5183C29.1205 9.849 29.6087 9.3608 29.6087 8.75858V7.70571C29.6087 7.10349 29.1205 6.61529 28.5183 6.61529H25.6162V4.15428C25.6162 3.55206 25.128 3.06386 24.5258 3.06386L23.0479 3.06384C22.4457 3.06384 21.9575 3.55204 21.9575 4.15427L21.9575 15.308C21.9575 16.6371 22.3854 17.7634 23.2699 18.64Z" fill="#262B31"/>
<path d="M16.8458 2.58413C16.5088 2.92112 16.3403 3.33031 16.3403 3.81172C16.3403 4.3172 16.5209 4.73844 16.8819 5.07542C17.2189 5.43648 17.6401 5.61701 18.1456 5.61701C18.627 5.61701 19.0362 5.44852 19.3732 5.11153C19.7343 4.75047 19.9148 4.3172 19.9148 3.81172C19.9148 3.33031 19.7343 2.92112 19.3732 2.58413C19.0362 2.22307 18.627 2.04254 18.1456 2.04254C17.6401 2.04254 17.2069 2.22307 16.8458 2.58413Z" fill="#28A0F6"/>
<path d="M16.3403 18.8245C16.3403 19.4267 16.8285 19.9149 17.4308 19.9149H18.8244C19.4266 19.9149 19.9148 19.4267 19.9148 18.8245L19.9148 7.72873C19.9148 7.12651 19.4266 6.63831 18.8244 6.63831L17.4309 6.63831C16.8287 6.6383 16.3405 7.1265 16.3405 7.72871L16.3403 18.8245Z" fill="#262B31"/>
<path fill-rule="evenodd" clip-rule="evenodd" d="M47.425 8.68744L47.4266 8.68922L47.4283 8.69097C48.079 9.36136 48.8709 9.70213 49.7904 9.70213C50.5636 9.70213 51.2172 9.49065 51.7279 9.04929V9.14715C51.7279 9.44075 51.9678 9.67875 52.2637 9.67875H53.0814C53.3773 9.67875 53.6172 9.44075 53.6172 9.14715V8.8258V0.531604C53.6172 0.238008 53.3773 1.30956e-06 53.0814 9.62988e-07L52.2591 0C51.9632 -3.46568e-07 51.7233 0.238007 51.7233 0.531603V3.09809L51.7228 3.21918C51.7228 3.21918 51.659 3.16926 51.5914 3.11632C51.114 2.74233 50.5502 2.55766 49.9122 2.55766C48.9522 2.55766 48.1315 2.88834 47.4665 3.54809C46.797 4.2124 46.4683 5.06929 46.4683 6.09537C46.4683 7.12929 46.7828 8.00038 47.425 8.68744ZM51.2494 4.79907L51.2508 4.80054L51.2521 4.802C51.588 5.16556 51.7581 5.60856 51.7581 6.14716C51.7581 6.7011 51.5915 7.13558 51.2718 7.47257C50.95 7.81178 50.5604 7.9785 50.0862 7.9785C49.6116 7.9785 49.2073 7.81123 48.8604 7.46697C48.5198 7.12913 48.3448 6.6965 48.3448 6.14716C48.3448 5.59567 48.5156 5.15476 48.8481 4.8048C49.1964 4.4389 49.5992 4.26403 50.0688 4.26403C50.5378 4.26403 50.9261 4.43817 51.2494 4.79907Z" fill="#262B31"/>
<path d="M43.9876 9.70216H44.8636C45.1857 9.70216 45.4468 9.46412 45.4468 9.17048L45.4469 3.08491C45.4469 2.79128 45.1857 2.55324 44.8636 2.55323L43.9875 2.55322C43.6654 2.55322 43.4043 2.79126 43.4043 3.08491L43.4044 9.17049C43.4044 9.46412 43.6655 9.70216 43.9876 9.70216Z" fill="#262B31"/>
<path d="M45.4469 1.02128C45.4469 1.58531 44.9896 2.04255 44.4256 2.04255C43.8615 2.04255 43.4043 1.58531 43.4043 1.02128C43.4043 0.457241 43.8615 0 44.4256 0C44.9896 0 45.4469 0.457241 45.4469 1.02128Z" fill="#262B31"/>
<path d="M32.1423 7.66725L32.1397 7.66921L32.1371 7.67119C31.1385 8.43713 30.6382 9.47686 30.6382 10.7385C30.6382 11.6765 31.0238 12.4837 31.7594 13.1342C32.4783 13.77 33.8921 14.3309 35.2292 14.7237C35.9983 14.9496 36.6014 15.2021 36.8871 15.451C37.1607 15.6895 37.1812 16.2008 36.8859 16.4276C36.6777 16.5877 36.3564 16.6949 35.8608 16.6949H32.1948C31.5926 16.6949 31.1044 17.1831 31.1044 17.7853V18.8245C31.1044 19.4267 31.5926 19.9149 32.1948 19.9149H35.7943C37.2227 19.9149 38.4061 19.663 39.3638 18.8847L39.3648 18.8839C40.3519 18.0779 40.851 17.0235 40.851 15.7625C40.851 14.4883 40.3664 13.4696 39.3544 12.8014C38.9539 12.5369 38.5656 12.3555 38.0752 12.1365C37.3638 11.8187 36.5752 11.4885 35.5881 11.2287C34.9745 11.0672 34.5383 10.9313 34.344 10.7672C34.1038 10.5643 34.1482 10.1779 34.4307 10.0048C34.6528 9.86878 35.1028 9.85076 35.7611 9.85076H37.5675C38.1697 9.85076 38.6579 9.36256 38.6579 8.76034V7.72873C38.6579 7.1265 38.1697 6.6383 37.5675 6.63831L35.9605 6.63831C34.4356 6.63831 33.1465 6.91626 32.1423 7.66725Z" fill="#262B31"/>
<path fill-rule="evenodd" clip-rule="evenodd" d="M5.16945 6.12762C3.68565 6.12762 2.51612 6.5294 1.47689 7.53914C0.42625 8.55997 3.29483e-05 10.0814 7.62566e-06 11.5466L4.14255e-10 12.1188C-4.25771e-05 16.2293 3.28203 19.5638 7.33064 19.5638H8.35731C8.87819 19.5638 9.28299 19.1103 9.22404 18.5928L9.0672 17.2157C9.0096 16.71 8.57327 16.3378 8.06452 16.3207C-nan -nan -nan -nan 8.06452 16.3207L-nan -nanL8.06452 16.3207C5.84064 16.2457 3.85867 15.5363 3.85874 11.5466C3.85876 10.4817 4.24074 9.42434 5.40989 9.42434H8.90629C9.96343 9.42434 10.8207 10.3326 10.8207 11.4151V17.7437V18.297C10.8207 19.6569 9.73494 20.7593 8.39554 20.7593H6.34919C5.91419 20.7593 5.56155 21.1174 5.56155 21.559V23.2003C5.56155 23.6419 5.91419 24 6.34919 24H9.4475C12.1263 24 14.2979 21.7951 14.2979 19.0753V10.5406C14.2979 8.10338 12.3519 6.12762 9.95144 6.12762H5.16945Z" fill="#262B31"/>
<path d="M8.17041 14.0426C8.17041 13.6195 8.51334 13.2766 8.93637 13.2766C9.35939 13.2766 9.70233 13.6195 9.70233 14.0426C9.70233 14.4656 9.35939 14.8085 8.93637 14.8085C8.51334 14.8085 8.17041 14.4656 8.17041 14.0426Z" fill="#262B31"/>
</svg>
