<svg width="105" height="47" viewBox="0 0 105 47" fill="none" xmlns="http://www.w3.org/2000/svg">
<path d="M77 15.9714C77 15.1333 77.2857 14.4286 77.8571 13.8571C78.4286 13.2857 79.1333 13 79.9714 13C80.8095 13 81.5143 13.2857 82.0857 13.8571C82.6952 14.4286 83 15.1333 83 15.9714C83 16.8095 82.6952 17.5333 82.0857 18.1429C81.5143 18.7143 80.8095 19 79.9714 19C79.0952 19 78.4095 18.6952 77.9143 18.0857C77.3048 17.5143 77 16.8095 77 15.9714Z" fill="#FF8B49"/>
<path fill-rule="evenodd" clip-rule="evenodd" d="M45.57 36.5033L45.5751 36.5084L45.5804 36.5134C47.2991 38.1697 49.4305 39 51.9074 39H54.8606C56.5945 39 58 37.5944 58 35.8606C58 34.1268 56.5945 32.7212 54.8606 32.7212H52.6217C51.7813 32.7212 51.2072 32.4907 50.7915 32.1025C50.4074 31.6658 50.1649 31.0346 50.1649 30.1033V19.2876H54.8172C56.5659 19.2876 57.9835 17.87 57.9835 16.1213C57.9835 14.3726 56.5659 12.9549 54.8172 12.9549H50.1649V9.20314C50.1649 7.43413 48.7308 6.00005 46.9618 6.00004L46.2031 6.00003C44.4341 6.00001 43 7.4341 43 9.20314L43 29.9782C43 32.581 43.838 34.7865 45.57 36.5033Z" fill="white"/>
<path d="M32.9899 5.06061C32.33 5.72054 32 6.52189 32 7.46465C32 8.45454 32.3535 9.27946 33.0606 9.93939C33.7205 10.6465 34.5455 11 35.5353 11C36.4781 11 37.2795 10.67 37.9394 10.0101C38.6465 9.30303 39 8.45454 39 7.46465C39 6.52189 38.6465 5.72054 37.9394 5.06061C37.2795 4.35354 36.4781 4 35.5353 4C34.5455 4 33.697 4.35354 32.9899 5.06061Z" fill="#28A0F6"/>
<path d="M32 35.7969C32 37.5659 33.4341 39 35.2031 39H35.7968C37.5659 39 38.9999 37.5659 39 35.7969L39 16.2031C39 14.4341 37.5659 13 35.7969 13L35.2034 13C33.4343 13 32.0003 14.4341 32.0003 16.2031L32 35.7969Z" fill="white"/>
<path fill-rule="evenodd" clip-rule="evenodd" d="M92.8735 17.0129L92.8768 17.0164L92.8801 17.0198C94.1543 18.3327 95.7052 19 97.5059 19C99.02 19 100.3 18.5858 101.3 17.7215V17.9132C101.3 18.4881 101.77 18.9542 102.349 18.9542H103.951C104.53 18.9542 105 18.4881 105 17.9132V17.2839V1.04106C105 0.466099 104.53 2.56455e-06 103.951 1.88585e-06L102.34 0C101.761 -6.78695e-07 101.291 0.466096 101.291 1.04106V6.06709L101.29 6.30423C101.29 6.30423 101.165 6.20647 101.033 6.10279C100.098 5.37039 98.9937 5.00875 97.7444 5.00875C95.8644 5.00875 94.2572 5.65632 92.955 6.94833C91.6437 8.24928 91 9.92736 91 11.9368C91 13.9615 91.616 15.6674 92.8735 17.0129ZM100.363 9.39818L100.366 9.40106L100.368 9.40391C101.026 10.1159 101.359 10.9834 101.359 12.0382C101.359 13.123 101.033 13.9738 100.407 14.6338C99.7768 15.2981 99.0138 15.6246 98.0852 15.6246C97.1557 15.6246 96.364 15.297 95.6845 14.6228C95.0177 13.9612 94.6748 13.114 94.6748 12.0382C94.6748 10.9582 95.0094 10.0947 95.6606 9.40941C96.3427 8.69284 97.1315 8.35038 98.0511 8.35038C98.9696 8.35038 99.7299 8.69142 100.363 9.39818Z" fill="white"/>
<path d="M86.1423 19H87.8578C88.4886 19 89 18.5338 89 17.9588L89 6.04122C89 5.46619 88.4887 5.00003 87.8579 5.00002L86.1421 5C85.5114 4.99999 85 5.46616 85 6.04122L85.0002 17.9588C85.0002 18.5338 85.5115 19 86.1423 19Z" fill="white"/>
<path d="M89 2C89 3.10457 88.1046 4 87 4C85.8954 4 85 3.10457 85 2C85 0.895431 85.8954 0 87 0C88.1046 0 89 0.895431 89 2Z" fill="white"/>
<path d="M62.9455 15.015L62.9404 15.0189L62.9353 15.0227C60.9798 16.5227 60 18.5588 60 21.0296C60 22.8666 60.7551 24.4473 62.1957 25.7212C63.6036 26.9663 66.3722 28.0647 68.9908 28.834C70.497 29.2764 71.6779 29.7707 72.2374 30.2582C72.7733 30.7252 72.8133 31.7265 72.2352 32.1708C71.8274 32.4842 71.1982 32.6941 70.2276 32.6941H64.0659C62.3246 32.6941 60.913 34.1057 60.913 35.8471C60.913 37.5884 62.3246 39 64.0659 39H70.0974C72.8947 39 75.2121 38.5066 77.0877 36.9825L77.0896 36.9809C79.0226 35.4025 80 33.3376 80 30.8682C80 28.3729 79.0511 26.3779 77.0692 25.0693C76.2849 24.5515 75.5245 24.1962 74.5642 23.7672C73.1709 23.1449 71.6267 22.4982 69.6935 21.9895C68.492 21.6732 67.6377 21.4071 67.2572 21.0858C66.7868 20.6885 66.8738 19.9318 67.4271 19.5928C67.8619 19.3263 68.7432 19.2911 70.0324 19.2911H72.5598C74.297 19.2911 75.7053 17.8828 75.7053 16.1455C75.7053 14.4083 74.297 13 72.5597 13L70.4228 13C67.4366 13 64.912 13.5443 62.9455 15.015Z" fill="white"/>
<path fill-rule="evenodd" clip-rule="evenodd" d="M10.1235 12C7.21774 12 4.92739 12.7868 2.89224 14.7642C0.834739 16.7633 6.45238e-05 19.7428 1.49336e-05 22.6121L8.10974e-10 23.7326C-8.33802e-05 31.7825 6.42732 38.3126 14.3558 38.3126H15.4094C16.9395 38.3126 18.1286 36.9804 17.9555 35.4601L17.7566 33.7142C17.6438 32.7238 16.7893 31.9949 15.793 31.9614C11.4379 31.8146 7.55656 30.4254 7.5567 22.6122C7.55674 20.5267 8.30477 18.4561 10.5944 18.4561H17.4415C19.5117 18.4561 21.1906 20.2348 21.1906 22.3547V34.7481V35.8318C21.1906 38.4949 19.0643 40.6538 16.4413 40.6538H12.4338C11.582 40.6538 10.8914 41.3549 10.8914 42.2199V45.4339C10.8914 46.2989 11.582 47 12.4338 47H18.5014C23.7473 47 28 42.6822 28 37.3559V20.6421C28 15.8692 24.1892 12 19.4882 12H10.1235Z" fill="white"/>
<path d="M16 27.5C16 26.6716 16.6716 26 17.5 26C18.3284 26 19 26.6716 19 27.5C19 28.3284 18.3284 29 17.5 29C16.6716 29 16 28.3284 16 27.5Z" fill="white"/>
</svg>
